<svg width="174" height="173" viewBox="0 0 174 173" fill="none" xmlns="http://www.w3.org/2000/svg">
<path d="M125.641 60.172C126.532 61.0604 127.239 62.1161 127.722 63.2784C128.205 64.4407 128.453 65.6869 128.453 66.9455C128.453 68.204 128.205 69.4502 127.722 70.6125C127.239 71.7749 126.532 72.8305 125.641 73.7189L81.0155 118.344C80.1271 119.235 79.0715 119.943 77.9091 120.425C76.7468 120.908 75.5006 121.156 74.2421 121.156C72.9835 121.156 71.7373 120.908 70.575 120.425C69.4127 119.943 68.357 119.235 67.4686 118.344L48.3436 99.2189C47.4541 98.3294 46.7485 97.2734 46.2672 96.1112C45.7858 94.949 45.538 93.7034 45.538 92.4455C45.538 91.1875 45.7858 89.9419 46.2672 88.7797C46.7485 87.6175 47.4541 86.5615 48.3436 85.672C49.2331 84.7825 50.2891 84.0769 51.4513 83.5955C52.6135 83.1142 53.8591 82.8664 55.1171 82.8664C56.375 82.8664 57.6206 83.1142 58.7828 83.5955C59.945 84.0769 61.001 84.7825 61.8905 85.672L74.25 98.0156L112.11 60.1481C112.999 59.2606 114.055 58.5571 115.217 58.078C116.379 57.5988 117.623 57.3533 118.88 57.3555C120.137 57.3577 121.381 57.6076 122.541 58.0909C123.701 58.5742 124.754 59.2814 125.641 60.172ZM173.063 86.0625C173.063 103.084 168.015 119.723 158.558 133.876C149.102 148.029 135.661 159.06 119.935 165.574C104.209 172.088 86.9046 173.792 70.2101 170.471C53.5156 167.151 38.1807 158.954 26.1447 146.918C14.1086 134.882 5.91195 119.547 2.59121 102.852C-0.729535 86.158 0.97479 68.8537 7.48866 53.1278C14.0025 37.4019 25.0334 23.9608 39.1863 14.5041C53.3392 5.04748 69.9785 0 87 0C109.817 0.0253105 131.693 9.10071 147.827 25.2351C163.962 41.3694 173.037 63.2451 173.063 86.0625ZM153.938 86.0625C153.938 72.8235 150.012 59.8818 142.657 48.874C135.301 37.8662 124.847 29.2867 112.616 24.2203C100.385 19.154 86.9258 17.8284 73.9412 20.4112C60.9566 22.994 49.0295 29.3692 39.6681 38.7305C30.3067 48.0919 23.9315 60.019 21.3487 73.0036C18.7659 85.9882 20.0915 99.4471 25.1579 111.678C30.2242 123.91 38.8037 134.364 49.8116 141.719C60.8194 149.074 73.761 153 87 153C104.747 152.981 121.762 145.923 134.311 133.373C146.86 120.824 153.919 103.81 153.938 86.0625Z" fill="#28A745"/>
</svg>
