<svg width="174" height="173" viewBox="0 0 174 173" fill="none" xmlns="http://www.w3.org/2000/svg">
<path d="M87.0001 0C69.978 0 53.3383 5.04762 39.1849 14.5046C25.0316 23.9615 14.0005 37.403 7.4864 53.1293C0.972349 68.8557 -0.732025 86.1605 2.58881 102.855C5.90965 119.55 14.1065 134.886 26.143 146.922C38.1794 158.959 53.5147 167.155 70.2096 170.476C86.9046 173.797 104.209 172.093 119.936 165.579C135.662 159.065 149.104 148.033 158.561 133.88C168.017 119.727 173.065 103.087 173.065 86.065C173.04 63.2469 163.964 41.3706 147.829 25.2358C131.694 9.10098 109.818 0.0253113 87.0001 0ZM87.0001 153.004C73.7607 153.004 60.8187 149.078 49.8105 141.723C38.8024 134.368 30.2226 123.913 25.1561 111.682C20.0896 99.45 18.764 85.9907 21.3469 73.0057C23.9297 60.0208 30.3051 48.0933 39.6668 38.7317C49.0284 29.37 60.9559 22.9946 73.9408 20.4118C86.9258 17.8289 100.385 19.1545 112.617 24.221C124.848 29.2875 135.303 37.8673 142.658 48.8754C150.014 59.8836 153.94 72.8256 153.94 86.065C153.921 103.813 146.862 120.828 134.312 133.377C121.763 145.927 104.748 152.985 87.0001 153.004ZM77.4373 89.2526V47.8139C77.4373 45.2777 78.4448 42.8453 80.2382 41.052C82.0315 39.2586 84.4639 38.2511 87.0001 38.2511C89.5363 38.2511 91.9686 39.2586 93.762 41.052C95.5553 42.8453 96.5629 45.2777 96.5629 47.8139V89.2526C96.5629 91.7888 95.5553 94.2211 93.762 96.0145C91.9686 97.8078 89.5363 98.8154 87.0001 98.8154C84.4639 98.8154 82.0315 97.8078 80.2382 96.0145C78.4448 94.2211 77.4373 91.7888 77.4373 89.2526ZM99.7505 121.128C99.7505 123.65 99.0026 126.115 97.6016 128.212C96.2006 130.309 94.2093 131.943 91.8794 132.908C89.5496 133.873 86.9859 134.126 84.5126 133.634C82.0393 133.142 79.7674 131.928 77.9842 130.144C76.201 128.361 74.9867 126.089 74.4947 123.616C74.0027 121.143 74.2552 118.579 75.2203 116.249C76.1853 113.919 77.8196 111.928 79.9164 110.527C82.0131 109.126 84.4783 108.378 87.0001 108.378C90.3817 108.378 93.6248 109.721 96.0159 112.113C98.4071 114.504 99.7505 117.747 99.7505 121.128Z" fill="#FBD900"/>
</svg>
